<svg width="210" height="210" viewBox="0 0 210 210" fill="none" xmlns="http://www.w3.org/2000/svg">
<g clip-path="url(#clip0_2541_982)">
<g opacity="0.2">
<path d="M113.707 52.5H96.1543V96.2929H61.207V113.846H113.707V52.5Z" fill="white"/>
<path d="M210.158 61.2073V17.5529H192.467V47.0978C183.008 32.8498 170.422 21.1545 155.422 13.041C140.541 4.65054 123.899 0.29698 106.801 0.000146121C89.7033 -0.296688 72.9025 3.60173 57.7442 11.26C42.5858 18.9184 29.3866 30.1585 19.4922 44.1096C9.59772 57.9025 3.30485 73.9513 0.890598 90.7521C-1.36534 107.711 0.435452 124.809 6.29297 140.858C12.1505 156.906 21.7481 171.155 34.3339 182.711C46.9394 194.11 62.2362 202.362 78.5819 206.557V188.41C64.9275 184.215 52.6386 176.715 42.5858 166.662C32.5331 156.61 25.0331 144.162 20.9763 130.508C16.7811 116.854 16.0291 102.467 18.7204 88.516C21.4117 74.5648 27.4275 61.3656 36.4117 50.264C45.2574 39.1624 56.8141 30.3168 69.855 24.6176C82.8959 18.9184 97.1637 16.5239 111.412 17.5727C125.66 18.6215 139.314 23.1136 151.464 30.7719C163.457 38.4302 173.509 48.7798 180.712 61.0688H148.912V78.6215H207.823C209.09 78.6215 210.119 77.5925 210.119 76.326V61.2271L210.158 61.2073Z" fill="white"/>
<path d="M96.7479 202.282V190.825L121.306 169.136C123.186 167.454 124.769 165.891 126.075 164.446C127.381 163.021 128.39 161.577 129.083 160.172C129.776 158.747 130.132 157.183 130.132 155.462C130.132 153.74 129.716 151.979 128.885 150.633C128.054 149.288 126.926 148.259 125.481 147.526C124.057 146.794 122.394 146.438 120.514 146.438C118.634 146.438 116.952 146.814 115.528 147.566C114.103 148.318 113.014 149.426 112.223 150.871C111.431 152.315 111.036 154.077 111.036 156.135H95.8179C95.8179 151.583 96.8469 147.625 98.9247 144.321C101.003 140.996 103.892 138.423 107.592 136.623C111.313 134.802 115.627 133.912 120.554 133.912C125.481 133.912 130.053 134.763 133.793 136.464C137.553 138.166 140.462 140.561 142.52 143.628C144.578 146.695 145.607 150.237 145.607 154.255C145.607 158.272 145.092 159.34 144.083 161.834C143.074 164.327 141.253 167.117 138.602 170.185C135.95 173.272 132.19 176.913 127.302 181.148L118.931 188.945V189.4H146.478V202.302H96.7479V202.282Z" fill="white"/>
<path d="M153.641 191.003V178.496L181.365 134.782H192.408V151.82H185.976L169.532 177.823V178.357H209.624V191.003H153.641ZM186.154 202.282V187.203L186.511 181.682V134.802H201.51V202.282H186.154Z" fill="white"/>
</g>
</g>
<defs>
<clipPath id="clip0_2541_982">
<rect width="210" height="210" fill="white"/>
</clipPath>
</defs>
</svg>
