<svg width="64" height="65" viewBox="0 0 64 65" fill="none" xmlns="http://www.w3.org/2000/svg">
<circle cx="31.8146" cy="32.5174" r="31.6008" fill="white"/>
<path d="M40.3341 48.6637L41.4058 48.55V40.8856L40.3341 40.7719V39.9438H43.7604V40.7719L42.6886 40.8856V44.1657H43.7604L46.3422 40.8856L45.8226 40.7719V39.9438H48.9403V40.7719L47.8199 40.8856L44.8483 44.5554L48.0797 48.55L48.9241 48.6637V49.4918H45.8064V48.6637L46.5046 48.55L43.7441 45.14H42.6724V48.55L43.7441 48.6637V49.4918H40.3179V48.6637H40.3341Z" fill="black"/>
<path d="M33.1081 44.6691C33.1081 43.5974 33.3679 42.7043 33.8713 42.006C34.3747 41.3078 35.0892 40.9506 35.9823 40.9506C36.4045 40.9506 36.7942 41.0155 37.1352 41.1454C37.4924 41.2753 37.7522 41.4215 37.9471 41.6326L38.1907 42.688H39.0838V41.3078C38.8239 40.9505 38.4018 40.6583 37.8821 40.3822C37.33 40.1224 36.7292 39.96 36.031 39.96C34.8294 39.96 33.8226 40.3985 33.0594 41.2916C32.2962 42.1846 31.9065 43.3051 31.9065 44.6529V44.7828C31.9065 46.1305 32.2962 47.251 33.0594 48.1441C33.8226 49.0372 34.8294 49.4756 36.031 49.4756C36.7292 49.4756 37.3625 49.3457 37.8821 49.0534C38.4342 48.7936 38.8239 48.4851 39.0838 48.1278V46.7476H38.1907L37.9471 47.8031C37.7522 47.9979 37.4924 48.1603 37.1352 48.2902C36.7779 48.4201 36.4207 48.4851 35.9823 48.4851C35.0892 48.4851 34.3585 48.1278 33.8713 47.4296C33.3842 46.7313 33.1081 45.8382 33.1081 44.7665V44.6691Z" fill="black"/>
<path d="M22.3748 48.6637L23.0892 48.55L26.4343 39.9438H27.5547L30.8348 48.55L31.5493 48.6637V49.4918H28.7888V48.6637L29.5033 48.5338L28.87 46.7638H25.0541L24.4045 48.5338L25.119 48.6637V49.4918H22.3748V48.6637ZM25.46 45.7083H28.4965L27.0189 41.6001H26.9702L25.46 45.7083Z" fill="black"/>
<path d="M19.7443 39.9438C20.7673 39.9438 21.563 40.2036 22.1313 40.7233C22.6996 41.2429 22.9757 41.9411 22.9757 42.8017C22.9757 43.6786 22.6996 44.3931 22.1313 44.9127C21.563 45.4323 20.7835 45.6921 19.7443 45.6921H17.7145V48.5338L18.7862 48.6475V49.4756H15.3438V48.6475L16.4155 48.5338V40.8694L15.3438 40.7557V39.9276H16.4155L19.7443 39.9438ZM17.7145 44.6691H19.7443C20.3938 44.6691 20.881 44.4905 21.2057 44.1495C21.5305 43.8085 21.6929 43.2726 21.6929 42.753C21.6929 42.2334 21.5467 41.795 21.2057 41.4215C20.881 41.0643 20.3938 40.9019 19.7443 40.9019H17.7145V44.6691Z" fill="black"/>
<path d="M47.8362 30.9804C47.5277 30.9804 47.2679 30.8667 47.0568 30.6719C46.8457 30.4608 46.7483 30.2172 46.7483 29.8924C46.7483 29.7463 46.7645 29.5839 46.8295 29.454C46.8944 29.3241 46.9594 29.1942 47.0731 29.0968C47.1867 28.9831 47.2841 28.9182 47.4303 28.8532C47.5602 28.7883 47.7063 28.772 47.8687 28.772C48.0311 28.772 48.1448 28.7883 48.3072 28.8532C48.4371 28.9182 48.567 28.9831 48.6644 29.0968C48.7781 29.2104 48.843 29.3079 48.908 29.454C48.9729 29.6002 48.9892 29.7301 48.9892 29.8924C48.9892 30.0386 48.9729 30.201 48.908 30.3309C48.843 30.4608 48.7781 30.5745 48.6644 30.6881C48.5832 30.7693 48.4533 30.8667 48.3072 30.9317C48.1123 30.9479 47.9824 30.9804 47.8362 30.9804ZM47.8362 22.1631C47.5277 22.1631 47.2679 22.0494 47.0568 21.8546C46.8457 21.6435 46.7483 21.3999 46.7483 21.0751C46.7483 20.929 46.7645 20.7666 46.8295 20.6367C46.8944 20.5068 46.9594 20.3931 47.0731 20.2795C47.1867 20.1658 47.2841 20.1008 47.4303 20.0359C47.5602 19.9709 47.6901 19.9547 47.8687 19.9547C48.0149 19.9547 48.1448 19.9709 48.3072 20.0359C48.4371 20.1008 48.567 20.1658 48.6644 20.2795C48.7781 20.3931 48.843 20.4906 48.908 20.6367C48.9729 20.7828 48.9892 20.9127 48.9892 21.0751C48.9892 21.2375 48.9729 21.3837 48.908 21.5136C48.843 21.6435 48.7781 21.7571 48.6644 21.8708C48.5832 21.952 48.4533 22.0494 48.3072 22.1144C48.1123 22.1468 47.9824 22.1631 47.8362 22.1631Z" fill="black"/>
<path d="M44.6046 16.772V15.3593H31.9226V35.5758H44.6046V34.1468H33.5951V26.0277H42.3475V24.6312H33.5951V16.772H44.6046Z" fill="black"/>
<path d="M22.05 26.3038C22.8132 26.1901 23.5277 25.9953 24.1609 25.7355C24.8592 25.4269 25.4762 25.021 25.9796 24.5338C26.483 24.0467 26.8727 23.4784 27.1325 22.8288C27.3923 22.1955 27.5223 21.4811 27.5223 20.6854C27.5223 18.9317 26.889 17.6489 25.7685 16.6908C24.6319 15.7003 22.8619 15.343 20.5236 15.343H15.3274V35.5433H16.9999V26.5311H19.5168C19.8903 26.5311 20.1501 26.5799 20.3287 26.6448C20.5074 26.726 20.6535 26.8559 20.8159 27.067L27.2137 35.1698C27.3274 35.316 27.4573 35.4134 27.571 35.4784C27.7009 35.5433 27.8308 35.5596 28.0094 35.5596H29.4871L22.4397 26.7422C22.3098 26.5799 22.1799 26.4499 22.05 26.3038ZM24.4532 24.1441C23.9661 24.5338 23.3978 24.8261 22.6995 25.0372C22.0175 25.2483 21.2218 25.3458 20.345 25.3458H16.9999V16.7233H20.5723C22.326 16.7233 23.7875 16.9019 24.6968 17.5677C25.5899 18.2172 26.1095 19.4188 26.1095 20.7991C26.1095 21.4811 25.9796 22.0819 25.7361 22.634C25.4762 23.1861 24.9404 23.7544 24.4532 24.1441Z" fill="black"/>
<circle cx="55.859" cy="56.5615" r="7.55671" fill="#28FF64"/>
</svg>
