<svg width="64" height="64" viewBox="0 0 64 64" fill="none" xmlns="http://www.w3.org/2000/svg">
<circle cx="31.8146" cy="32.1139" r="31.6008" fill="#1D1D1D"/>
<g clip-path="url(#clip0_2631_167)">
<path d="M48.732 20.139C48.485 20.042 48.2287 19.9727 47.977 19.9034C47.8652 19.8711 47.7487 19.8433 47.6368 19.811L47.6135 19.8018H16.6586L16.6306 19.811C16.5094 19.848 16.3836 19.8803 16.2624 19.9126C16.0061 19.9773 15.7358 20.0466 15.4888 20.1668C14.2165 20.7674 13.4568 21.7747 13.2331 23.1515C13.2331 23.1515 13.2331 23.1515 13.2285 23.1562L13.1912 23.207V23.267C13.1912 28.9455 13.1912 34.818 13.1865 40.5935V40.6536L13.2238 40.7044C13.2285 40.709 13.2285 40.7136 13.2331 40.7182C13.4242 41.7162 13.8996 42.5572 14.6126 43.1439C15.335 43.74 16.2671 44.0542 17.3064 44.0542C27.0002 44.0542 37.0202 44.0542 46.8772 44.0495C47.236 44.0495 47.6135 44.0126 47.991 43.9433C48.8206 43.7862 49.5989 43.3195 50.1814 42.6172C50.7593 41.9195 51.0809 41.074 51.0809 40.2331V23.6274C51.0809 22.1535 50.0929 20.6889 48.732 20.139ZM15.9875 21.3727C16.3417 21.1879 16.7098 21.0955 17.1106 21.0955H47.1614C47.5995 21.0955 48.005 21.2064 48.4198 21.4466C43.1255 25.8083 37.8545 30.1468 32.5695 34.4946C27.0049 30.096 21.4076 25.665 15.9875 21.3727ZM22.4655 37.7658C24.4742 36.1718 26.4875 34.5778 28.5055 32.9791C29.7965 34.0048 31.134 35.0629 32.4669 36.1163L32.5835 36.2087L32.7 36.1117C34.0375 35.0121 35.2539 34.0141 36.4097 33.0576L38.8378 34.8873C42.0396 37.2992 45.3485 39.7895 48.6295 42.2661C48.5456 42.3261 48.4617 42.3816 48.3778 42.4232C47.991 42.6311 47.5855 42.7327 47.1754 42.7327C43.1674 42.7327 39.1641 42.7327 35.156 42.7281C29.2465 42.7281 23.132 42.7281 17.12 42.7235C16.8916 42.7235 16.6632 42.6773 16.4209 42.6311C16.3976 42.6265 16.3696 42.6218 16.3463 42.6172C18.383 41.0047 20.4196 39.3876 22.4655 37.7658ZM14.5427 40.6074C14.5101 40.4179 14.4961 40.2377 14.4961 40.0668V23.6921C14.4961 23.17 14.6499 22.6987 14.9622 22.2598C19.124 25.5541 23.2765 28.8392 27.4476 32.1428C24.2831 34.6517 21.0814 37.1883 17.9822 39.6417L15.1812 41.8595C14.8503 41.5083 14.6406 41.0925 14.5427 40.6074ZM49.7806 40.2008C49.776 40.575 49.6828 40.9308 49.4917 41.2773C47.6881 39.9189 45.8891 38.5651 44.0948 37.2114C41.8811 35.5434 39.6674 33.8755 37.4537 32.2075L41.3312 29.0102C44.0203 26.797 46.7001 24.5885 49.3892 22.3753C49.6501 22.7819 49.776 23.1977 49.776 23.6367C49.7853 29.1303 49.7853 34.7071 49.7806 40.2008Z" fill="white"/>
</g>
<defs>
<clipPath id="clip0_2631_167">
<rect width="37.8944" height="24.2524" fill="white" transform="translate(13.1865 19.8018)"/>
</clipPath>
</defs>
</svg>
