<svg width="64" height="65" viewBox="0 0 64 65" fill="none" xmlns="http://www.w3.org/2000/svg">
<circle cx="31.8146" cy="32.5762" r="31.6008" fill="#1D1D1D"/>
<g clip-path="url(#clip0_2631_166)" filter="url(#filter0_d_2631_166)">
<path d="M40.8641 52.5118C40.4119 52.5118 39.9583 52.3886 39.478 52.1371C32.2513 48.3437 26.5054 42.8793 22.4018 35.895C19.8283 31.5151 18.0954 26.6995 17.2496 21.5808C17.0414 20.319 16.9507 19.0889 16.9814 17.9224C16.9921 17.5345 17.2816 16.9771 17.6418 16.6527C19.5829 14.9036 21.8148 13.7318 24.2762 13.1678C24.4683 13.1241 24.6644 13.1016 24.8592 13.1016C25.8544 13.1016 26.7229 13.6683 27.0724 14.5448C28.1703 17.3015 29.1962 20.0939 30.0727 22.4944C30.3582 23.2782 30.1901 24.0514 29.5578 24.8604C29.331 25.1504 29.0935 25.4443 28.8654 25.7277C28.4919 26.1898 28.105 26.6677 27.7434 27.1563C27.5367 27.4357 27.4726 27.9057 27.6007 28.2036C29.307 32.1797 31.7083 35.7202 34.7367 38.7285C34.9795 38.9694 35.373 39.0555 35.6359 39.0555C35.7252 39.0555 35.8093 39.0462 35.8867 39.0277C36.5737 38.8648 37.2554 38.6609 37.9158 38.4637C38.1586 38.3908 38.4014 38.318 38.6442 38.2478C38.9377 38.1618 39.2232 38.1194 39.4927 38.1194C40.1584 38.1194 40.7627 38.3776 41.343 38.9085C43.1441 40.5609 44.9891 42.2226 46.7741 43.8287L47.1049 44.1266C47.6999 44.6615 47.9761 45.3129 48.0508 46.3629C48.0148 46.4516 47.9801 46.5496 47.9427 46.6515C47.8227 46.9852 47.6733 47.3996 47.4318 47.72C46.0497 49.5565 44.2593 51.058 42.1101 52.186C41.6926 52.4045 41.2857 52.5118 40.8654 52.5118H40.8641ZM24.8071 14.4005C24.6123 14.4005 24.3882 14.4376 24.1214 14.5157C22.1777 15.0797 20.4073 16.0132 18.8585 17.2882C18.5863 17.512 18.4222 17.8205 18.2901 18.0681C18.2448 18.1541 18.2008 18.2349 18.1634 18.2932L18.0847 18.4137L18.1074 18.5553C18.1874 19.0585 18.2568 19.5417 18.3262 20.0105C18.4676 20.9836 18.6023 21.9012 18.7891 22.8108C20.362 30.4466 23.8706 37.1846 29.2149 42.837C32.338 46.1405 35.964 48.8614 39.9916 50.9256C40.2291 51.0474 40.5506 51.1175 40.8721 51.1175C41.0749 51.1175 41.3697 51.0897 41.6272 50.9587C43.3935 50.0636 44.9571 48.774 46.2725 47.1255C46.9435 46.2848 46.8968 45.7009 46.1017 44.9727C45.2893 44.2285 44.4728 43.4884 43.6563 42.7483C42.6371 41.8241 41.5832 40.8694 40.5546 39.9227C40.2064 39.6023 39.8342 39.4461 39.4166 39.4461C39.2205 39.4461 39.0137 39.4805 38.787 39.5507C38.2386 39.7215 37.673 39.8804 37.126 40.034C36.543 40.1981 35.9414 40.3663 35.3517 40.553C35.241 40.5874 35.1436 40.6046 35.0542 40.6046C34.8688 40.6046 34.7047 40.5265 34.5219 40.3531C30.8252 36.8338 27.9902 32.6776 26.0958 27.9971C25.9184 27.5602 25.9624 27.2675 26.2533 26.9193C26.6295 26.4691 26.9977 26.0018 27.3525 25.5503C27.6967 25.1133 28.0516 24.6618 28.4118 24.2302C28.8587 23.6939 28.9468 23.1299 28.6906 22.4573C28.1236 20.9704 27.558 19.4517 27.011 17.9847C26.7002 17.1492 26.388 16.3124 26.0745 15.4769C25.8864 14.9764 25.5729 14.4018 24.8071 14.4018V14.4005Z" fill="white"/>
</g>
<defs>
<filter id="filter0_d_2631_166" x="12.9761" y="13.1016" width="39.0735" height="47.4102" filterUnits="userSpaceOnUse" color-interpolation-filters="sRGB">
<feFlood flood-opacity="0" result="BackgroundImageFix"/>
<feColorMatrix in="SourceAlpha" type="matrix" values="0 0 0 0 0 0 0 0 0 0 0 0 0 0 0 0 0 0 127 0" result="hardAlpha"/>
<feOffset dy="4"/>
<feGaussianBlur stdDeviation="2"/>
<feComposite in2="hardAlpha" operator="out"/>
<feColorMatrix type="matrix" values="0 0 0 0 0 0 0 0 0 0 0 0 0 0 0 0 0 0 0.25 0"/>
<feBlend mode="normal" in2="BackgroundImageFix" result="effect1_dropShadow_2631_166"/>
<feBlend mode="normal" in="SourceGraphic" in2="effect1_dropShadow_2631_166" result="shape"/>
</filter>
<clipPath id="clip0_2631_166">
<rect width="31.0734" height="39.4102" fill="white" transform="translate(16.9761 13.1016)"/>
</clipPath>
</defs>
</svg>
