<svg width="130" height="41" viewBox="0 0 130 41" fill="none" xmlns="http://www.w3.org/2000/svg">
<path d="M125.834 39.3519C126.124 39.3519 126.414 39.3256 126.651 39.2992C126.915 39.2729 127.152 39.2203 127.363 39.1676C127.574 39.115 127.785 39.036 127.996 38.957C128.181 38.8781 128.392 38.7728 128.576 38.6938V36.3775H126.862C126.757 36.3775 126.678 36.3511 126.625 36.2985C126.572 36.2458 126.546 36.1669 126.546 36.0879V35.2456H129.974V39.3782C129.684 39.5888 129.394 39.7467 129.104 39.9046C128.814 40.0626 128.471 40.1942 128.128 40.2732C127.653 40.3784 127.442 40.4311 127.021 40.5101C126.625 40.5627 126.203 40.589 125.728 40.589C124.911 40.589 124.173 40.4574 123.513 40.1679C122.828 39.9046 122.248 39.5098 121.773 39.0097C121.298 38.5096 120.903 37.9042 120.639 37.2198C120.375 36.5091 120.244 35.8773 120.244 35.035C120.244 34.1927 120.375 33.403 120.639 32.7187C120.903 32.0343 121.298 31.4289 121.773 30.9287C122.274 30.4286 122.854 30.0338 123.566 29.7706C124.278 29.5073 125.043 29.3494 125.913 29.3494C126.361 29.3494 126.757 29.3757 127.152 29.4547C127.522 29.5073 127.891 29.6126 128.207 29.7442C128.524 29.8758 128.84 30.0075 129.104 30.1917C129.367 30.376 129.631 30.5602 129.868 30.7708L129.446 31.4552C129.367 31.5868 129.236 31.6658 129.104 31.6658C129.025 31.6658 128.919 31.6394 128.84 31.5868C128.708 31.5078 128.576 31.4289 128.418 31.3236C128.26 31.2183 128.075 31.113 127.838 31.034C127.601 30.9287 127.337 30.8498 127.021 30.7971C126.704 30.7182 126.335 30.6918 125.913 30.6918C125.28 30.6918 124.726 30.7971 124.225 31.0077C123.724 31.2183 123.276 31.5078 122.933 31.8763C122.564 32.2449 122.3 32.7187 122.116 33.2451C121.931 33.7979 121.826 34.4033 121.826 35.0613C121.826 35.772 121.931 36.2722 122.116 36.8249C122.327 37.3777 122.591 37.8515 122.96 38.22C123.329 38.6149 123.751 38.9044 124.252 39.0887C124.7 39.2466 125.227 39.3519 125.834 39.3519Z" fill="white"/>
<path d="M110.935 29.5073C110.988 29.5336 111.067 29.6126 111.146 29.7179L117.58 38.0884C117.554 37.9568 117.554 37.8252 117.554 37.6936C117.554 37.562 117.554 37.4567 117.554 37.3251V29.4547H118.872V40.5627H118.108C117.976 40.5627 117.897 40.5364 117.817 40.5101C117.738 40.4574 117.659 40.4048 117.58 40.2995L111.146 31.929C111.146 32.0606 111.172 32.1922 111.172 32.2975C111.172 32.4291 111.172 32.5344 111.172 32.6397V40.5627H109.854V29.4547H110.619C110.777 29.4547 110.856 29.481 110.935 29.5073Z" fill="white"/>
<path d="M107.955 40.5627H106.452V29.4547H107.955V40.5627Z" fill="white"/>
<path d="M105.213 29.4547V30.7182H101.627V40.5627H100.124V30.7182H96.5112V29.4547H105.213Z" fill="white"/>
<path d="M95.2456 29.4547V30.6918H89.8927V34.4296H94.2172V35.6141H89.8927V39.3519H95.2456V40.589H88.3896V29.481H95.2456V29.4547Z" fill="white"/>
<path d="M79.7403 34.4296H80.2941C80.4787 34.4296 80.6369 34.4033 80.7687 34.3506C80.8742 34.298 81.0061 34.219 81.1115 34.0874L84.8032 29.7969C84.9087 29.6653 85.0142 29.5863 85.146 29.5336C85.2515 29.481 85.3833 29.4547 85.5416 29.4547H86.8337L82.5882 34.3243C82.4827 34.4559 82.3773 34.5349 82.2718 34.6139C82.1663 34.6928 82.0608 34.7718 81.9554 34.8244C82.0872 34.8771 82.2191 34.9297 82.3245 35.035C82.43 35.1403 82.5355 35.2456 82.6673 35.3772L87.0973 40.5364H85.8053C85.6998 40.5364 85.6207 40.5364 85.5679 40.5101C85.4888 40.4837 85.4361 40.4837 85.3833 40.4574C85.3306 40.4311 85.2779 40.4048 85.2515 40.3521C85.1988 40.2995 85.1724 40.2732 85.1197 40.2205L81.2698 35.9036C81.217 35.851 81.1643 35.7984 81.1115 35.7457C81.0588 35.6931 81.0061 35.6667 80.9533 35.6404C80.9006 35.6141 80.8215 35.5878 80.716 35.5878C80.6369 35.5878 80.5314 35.5615 80.3996 35.5615H79.714V40.5627H78.2109V29.4547H79.714V34.4296H79.7403Z" fill="white"/>
<path d="M70.1945 35.5878V40.589H68.6914V29.481H71.8557C72.5677 29.481 73.1742 29.56 73.6752 29.6916C74.1235 29.8232 74.5717 30.0074 74.9409 30.297C75.4683 30.7181 75.732 31.3236 75.7847 32.0079C75.8374 32.7976 75.7056 33.6662 75.2046 34.219C74.9673 34.4822 74.6772 34.7191 74.3344 34.9034C73.9916 35.0876 73.6224 35.2456 73.1742 35.3245C73.3587 35.4298 73.517 35.5878 73.6752 35.7983L76.9186 40.5627H75.5738C75.3101 40.5627 75.0991 40.4574 74.9673 40.2468L72.0667 35.93C71.9875 35.7983 71.8821 35.7194 71.7766 35.6667C71.6711 35.6141 71.5129 35.5878 71.302 35.5878H70.1945ZM70.1945 34.4822H71.7766C72.2249 34.4822 72.594 34.4296 72.9368 34.3243C73.2796 34.219 73.5433 34.0611 73.7807 33.8768C74.4135 33.324 74.7827 32.0343 74.1235 31.3762C73.8861 31.1393 73.5961 30.9814 73.306 30.8761C72.8577 30.6918 72.3304 30.6392 71.8557 30.6392H70.2208V34.4822H70.1945Z" fill="white"/>
<path d="M67.4788 40.5627H66.3186C66.1867 40.5627 66.0812 40.5364 66.0021 40.4574C65.923 40.3784 65.8439 40.2995 65.8176 40.1942L64.6837 37.2987H59.8581L58.7243 40.1942C58.6979 40.2995 58.6188 40.3784 58.5397 40.4311C58.4606 40.51 58.3551 40.5364 58.2232 40.5364H57.063L61.5194 29.4283H63.0488L67.4788 40.5627ZM60.4382 35.7983H64.0772L62.5741 31.929C62.4687 31.6394 62.3368 31.2972 62.2313 30.8761C62.1786 31.0867 62.1259 31.2709 62.0731 31.4552C62.0204 31.6394 61.9677 31.7974 61.9149 31.929L60.4382 35.7983Z" fill="white"/>
<path d="M50.0751 35.7984L54.1887 29.7442C54.2678 29.6126 54.3206 29.56 54.3997 29.5336C54.4788 29.5073 54.5843 29.5073 54.7161 29.5073H55.8236V40.5627H54.5052V32.4028C54.5052 32.2975 54.5052 32.1659 54.5052 32.0606C54.5052 31.929 54.5052 31.7974 54.5315 31.6921C54.0832 32.3238 53.635 32.9556 53.1867 33.6136C52.3693 34.7455 51.4991 35.9826 50.708 37.1145C50.5498 37.3514 50.4707 37.483 50.0751 37.483C49.7851 37.483 49.6005 37.2987 49.4423 37.0882L45.6187 31.6921C45.6187 31.8237 45.6451 31.9553 45.6451 32.0606C45.6451 32.1922 45.6451 32.2975 45.6451 32.4028V40.5627H44.3267V29.4547H45.4342C45.566 29.4547 45.6715 29.4547 45.7506 29.481C45.8297 29.5073 45.8824 29.5863 45.9615 29.6916L50.0751 35.7984Z" fill="white"/>
<path d="M39.211 39.3782H0V40.5627H39.211V39.3782Z" fill="white"/>
<path d="M108.035 22.2424L110.777 21.9528V2.42167L108.035 2.13212V0.0263367H116.789V2.13212L114.047 2.42167V10.7658H116.789L123.355 2.42167L122.01 2.13212V0.0263367H130V2.13212L127.152 2.42167L119.584 11.7924L127.812 21.9528L130 22.2424V24.3482H122.01V22.2424L123.803 21.9528L116.789 13.2928H114.047V21.9528L116.789 22.2424V24.3482H108.035V22.2424Z" fill="white"/>
<path d="M89.6291 12.0556C89.6291 9.31811 90.2884 7.05439 91.5805 5.26448C92.8726 3.47456 94.6657 2.5796 96.9861 2.5796C98.0673 2.5796 99.0429 2.73753 99.9131 3.07972C100.783 3.42191 101.469 3.81675 101.944 4.31687L102.55 6.97543H104.818V3.44824C104.132 2.5796 103.104 1.78993 101.733 1.10555C100.361 0.421169 98.7792 0.0789795 96.9861 0.0789795C93.901 0.0789795 91.3695 1.21084 89.3918 3.50088C87.4141 5.7646 86.4385 8.63373 86.4385 12.082V12.4505C86.4385 15.8987 87.4141 18.7678 89.3918 21.0315C91.3695 23.2953 93.901 24.4534 96.9861 24.4534C98.7792 24.4534 100.361 24.1113 101.733 23.4269C103.104 22.7425 104.132 21.9528 104.818 21.0842V17.557H102.55L101.944 20.2156C101.469 20.7157 100.783 21.1105 99.9131 21.4527C99.0429 21.7949 98.0673 21.9528 96.9861 21.9528C94.692 21.9528 92.8989 21.0579 91.5805 19.268C90.2884 17.478 89.6291 15.2143 89.6291 12.4768V12.0556Z" fill="white"/>
<path d="M62.2573 22.2424L64.0768 21.9528L72.594 0.0263367H75.4155L83.7746 21.9528L85.594 22.2424V24.3482H78.5798V22.2424L80.4257 21.9265L78.8172 17.4517H69.0606L67.3993 21.9265L69.2452 22.2424V24.3482H62.2573V22.2424ZM70.089 14.6879H77.8415L74.0443 4.23791H73.9389L70.089 14.6879Z" fill="white"/>
<path d="M55.5072 0.0263367C58.1177 0.0263367 60.1218 0.684394 61.5721 2.02683C63.0224 3.36927 63.7344 5.13287 63.7344 7.31762C63.7344 9.52869 63.0224 11.3976 61.5721 12.74C60.1218 14.0561 58.0914 14.7405 55.5072 14.7405H50.3388V21.9791L53.0812 22.2687V24.3745H44.3267V22.2687L47.0691 21.9791V2.42167L44.3003 2.13212V0.0263367H47.0427H55.5072ZM50.3125 12.0556H55.5072C57.1684 12.0556 58.4078 11.6082 59.2252 10.7132C60.0427 9.81824 60.4646 8.50212 60.4646 7.15968C60.4646 5.81725 60.0427 4.68539 59.2252 3.79043C58.4078 2.89547 57.1684 2.44799 55.5072 2.44799H50.3388V12.0556H50.3125Z" fill="white"/>
<path d="M39.1842 18.8468C38.815 18.8468 38.4986 18.7152 38.2349 18.4783C37.9712 18.2151 37.8657 17.9255 37.8657 17.5307C37.8657 17.3464 37.8921 17.1622 37.9712 17.0042C38.0503 16.8463 38.1294 16.6884 38.2613 16.5831C38.3931 16.4515 38.5249 16.3725 38.6832 16.2935C38.8414 16.2146 39.026 16.1882 39.2105 16.1882C39.3951 16.1882 39.5533 16.2146 39.7379 16.2935C39.8961 16.3725 40.0544 16.4515 40.1598 16.5831C40.2917 16.7147 40.3708 16.8463 40.4499 17.0042C40.529 17.1622 40.5554 17.3464 40.5554 17.5307C40.5554 17.7149 40.529 17.8992 40.4499 18.0571C40.3708 18.2151 40.2917 18.3467 40.1598 18.4783C40.0544 18.5836 39.8961 18.6889 39.7379 18.7678C39.5533 18.7941 39.3688 18.8468 39.1842 18.8468ZM39.1842 8.21257C38.815 8.21257 38.4986 8.08096 38.2349 7.84406C37.9712 7.58083 37.8657 7.29129 37.8657 6.89645C37.8657 6.7122 37.8921 6.52794 37.9712 6.37001C38.0503 6.21207 38.1294 6.08046 38.2613 5.94885C38.3931 5.81724 38.5249 5.73827 38.6832 5.65931C38.8414 5.58034 38.9996 5.55402 39.2105 5.55402C39.3951 5.55402 39.5533 5.58034 39.7379 5.65931C39.8961 5.73827 40.0544 5.81724 40.1598 5.94885C40.2917 6.08046 40.3708 6.21207 40.4499 6.37001C40.529 6.52794 40.5554 6.7122 40.5554 6.89645C40.5554 7.08071 40.529 7.26497 40.4499 7.4229C40.3708 7.58083 40.2917 7.71245 40.1598 7.84406C40.0544 7.94935 39.8961 8.05464 39.7379 8.1336C39.5533 8.18625 39.3688 8.21257 39.1842 8.21257Z" fill="white"/>
<path d="M35.2819 1.71097V0.0263367H19.9878V24.3745H35.2819V22.6635H22.0182V12.8716H32.5923V11.187H22.0182V1.71097H35.2819Z" fill="white"/>
<path d="M8.06896 13.2138C8.99189 13.0822 9.86207 12.8453 10.6268 12.5294C11.4706 12.1609 12.2089 11.6608 12.8154 11.0817C13.4219 10.5026 13.8966 9.81822 14.213 9.02855C14.5294 8.26521 14.6876 7.39657 14.6876 6.44897C14.6876 4.34318 13.9229 2.79017 12.5781 1.63198C11.2069 0.447479 9.07099 0 6.24949 0H0V24.3481H1.97769V13.477H5.01014C5.45842 13.477 5.77485 13.5297 5.9858 13.6086C6.19675 13.7139 6.38134 13.8719 6.56592 14.1088L14.2921 23.8743C14.4239 24.0586 14.5822 24.1639 14.714 24.2429C14.8722 24.3218 15.0304 24.3481 15.2414 24.3481H17.0345L8.56998 13.7403C8.41177 13.5297 8.25355 13.3717 8.06896 13.2138ZM10.9959 10.6079C10.4158 11.0817 9.73022 11.4239 8.88641 11.6871C8.06896 11.9503 7.09331 12.0556 6.03854 12.0556H1.97769V1.65831H6.27586C8.3854 1.65831 10.1521 1.86888 11.2596 2.68488C12.3408 3.47455 12.9736 4.92227 12.9736 6.58058C12.9736 7.39657 12.8154 8.1336 12.5254 8.79166C12.2353 9.44971 11.5497 10.1341 10.9959 10.6079Z" fill="white"/>
</svg>
